<svg width="588" height="588" xmlns="http://www.w3.org/2000/svg" xmlns:xlink="http://www.w3.org/1999/xlink" xml:space="preserve" overflow="hidden"><g transform="translate(-1263 814)"><path d="M1564.59-789.613C1554.72-786.381 1544.64-780.029 1538.78-773.354 1533.28-767.088 1526.14-753.192 1526.11-748.71 1526.1-746.443 1524.42-746.033 1515.4-746.088 1509.51-746.123 1502.64-745.353 1500.13-744.377 1488.14-739.709 1479.18-728.742 1477.53-716.69L1476.58-709.762 1468.73-709.008C1454.79-707.669 1445.26-697.213 1445.26-683.245 1445.26-672.779 1449.82-665.54 1459.48-660.66 1466.22-657.254 1468.26-657.094 1505.03-657.094 1526.21-657.094 1543.53-656.633 1543.53-656.069 1543.53-655.506 1541.39-648.365 1538.77-640.201 1536.16-632.039 1534.02-624.653 1534.02-623.792 1534.02-622.835 1542.65-622.226 1556.21-622.226 1568.41-622.226 1578.4-621.848 1578.4-621.385 1578.4-620.618 1561.39-588.669 1551.86-571.509 1546.57-562.006 1547.37-562.827 1585.54-606.377L1616.8-642.038 1594.5-642.83 1572.2-643.623 1575.16-650.216 1578.11-656.809 1610.35-657.369C1645.86-657.985 1651.61-659.312 1661.43-669.144 1681.81-689.545 1669.62-726.583 1641.13-730.856L1634.2-731.894 1633.12-742.041C1630.21-769.173 1609.22-789.329 1582.03-791.101 1575.3-791.54 1568.76-790.982 1564.59-789.613M1370.08-642.651C1354.21-638.887 1342.35-623.374 1342.28-606.292 1342.17-578.519 1371.34-560.58 1396.13-573.17 1417.68-584.109 1423.26-611.912 1407.59-630.218 1398.28-641.101 1383.79-645.903 1370.08-642.651M1713.91-636.749C1700.3-630.222 1692.49-617.537 1692.54-602.07 1692.61-585.791 1701.28-573.494 1716.92-567.522 1725.38-564.293 1738.31-564.948 1746.14-569.002 1771.51-582.117 1773.46-617.977 1749.69-633.944 1740.52-640.104 1723.66-641.426 1713.91-636.749M1333.07-559.491C1311.33-548.658 1292.36-515.827 1285.06-476.415 1282.61-463.197 1282.63-406.643 1285.08-397.545 1287.43-388.852 1295.18-380.088 1304.21-375.905 1310.88-372.818 1314.59-372.572 1361.66-372.108L1411.98-371.61 1411.98-324.805C1411.98-284.32 1412.33-277.406 1414.57-273.611 1422.16-260.773 1443.01-260.773 1450.6-273.611 1452.87-277.468 1453.19-285.352 1453.18-338.772 1453.17-420.397 1456.55-415.128 1403.73-415.903L1369.19-416.411 1369.19-463.33 1352.55-491.584C1343.39-507.124 1335.91-520.322 1335.91-520.914 1335.91-523.022 1340.3-525.587 1342.44-524.729 1343.64-524.251 1353.54-508.489 1364.43-489.706 1378.39-465.652 1385.51-454.889 1388.52-453.306 1391.86-451.551 1400.88-451.057 1429.49-451.057L1466.18-451.057 1471.57-456.445C1477.31-462.178 1478.29-467.012 1475.13-473.941 1471.15-482.693 1467.79-483.468 1435.75-483.034L1406.43-482.637 1384.82-519.545C1361.65-559.123 1357.82-563.585 1347.08-563.585 1343.89-563.585 1337.59-561.742 1333.07-559.491M1753.2-562.065C1748.36-559.992 1743.73-553.121 1721.83-515.491L1702.81-482.81 1672.18-482.783 1641.55-482.755 1636.92-478.122C1626.83-468.034 1633.15-452.534 1648.27-450.29 1652.12-449.719 1668.94-449.48 1685.66-449.757 1713.55-450.223 1716.43-450.537 1720.53-453.57 1723.08-455.459 1733.46-471.261 1744.74-490.419 1761.33-518.607 1765.06-523.962 1768.12-523.962 1770.68-523.962 1771.75-523.038 1771.75-520.851 1771.75-519.139 1764.27-504.983 1755.11-489.389L1738.47-461.04 1738.47-414.604 1704.79-414.597C1674.21-414.593 1670.65-414.309 1666.05-411.504 1655.11-404.836 1655.31-406.107 1654.8-340.578 1654.36-285.245 1654.52-281.025 1657.36-274.617 1662.52-262.938 1677.48-259.018 1688.74-266.396 1696.63-271.569 1697.26-275.95 1697.26-325.798L1697.26-371.811 1743.15-371.811C1769.81-371.811 1792.35-372.523 1796.95-373.51 1807.65-375.804 1816.47-382.528 1821.05-391.876 1824.55-399.015 1824.86-401.744 1825.39-431.18 1826-464.446 1824.68-478.268 1819.03-497.811 1811.54-523.729 1794.89-548.741 1778.89-558.117 1771.45-562.48 1758.73-564.434 1753.2-562.065M1394.55-433.623 1394.55-425.698 1713.11-425.698 1713.11-441.547 1394.55-441.547Z" fill="#00A651" fill-rule="evenodd"/></g></svg>