<svg width="562" height="551" xmlns="http://www.w3.org/2000/svg" xmlns:xlink="http://www.w3.org/1999/xlink" xml:space="preserve" overflow="hidden"><g transform="translate(-415 669)"><path d="M295.791 19.4514C263.849 26.7213 235.281 49.3337 221.521 78.2386 212.154 97.9186 209.396 109.944 209.556 130.41 209.79 160.281 220.104 184.741 241.586 206.378 302.75 267.978 403.956 241.218 428.449 156.966 432.605 142.677 432.584 116.322 428.407 100.351 424.309 84.6852 414.692 66.4919 404.122 54.4089 393.014 41.7108 370.829 27.0688 355.329 22.2055 339.09 17.1099 311.652 15.8406 295.791 19.4514M307.119 31.8671C306.954 34.0636 308.091 38.3193 309.645 41.328 312.973 47.7616 311.88 52.0339 306.907 52.0339 304.952 52.0339 301.172 54.8921 298.508 58.3858 293.228 65.31 283.598 68.7963 279.963 65.1019 277.778 62.8793 280.58 59.8576 292.683 51.3872 295.382 49.4973 297.264 47.6241 296.865 47.2245 296.463 46.825 291.611 47.6724 286.081 49.107 274.425 52.1306 271.599 51.285 276.235 46.1615 279.071 43.0265 279.155 42.2739 276.821 40.7983 273.193 38.5033 272.957 38.5534 267.603 42.7422L262.957 46.3771 267.138 46.418C272.635 46.4719 272.444 50.3298 266.674 55.7506 264.119 58.1516 262.028 61.991 262.028 64.2861 262.028 70.3945 260.129 74.3342 257.183 74.3342 255.708 74.3342 254.595 72.4647 254.595 69.9875 254.595 66.2708 253.74 65.691 248.705 65.9902 235.279 66.7893 221.144 98.7047 221.144 128.226 221.144 155.394 231.09 179.101 250.828 198.981 272.221 220.531 296.9 229.841 328 228.096 348.362 226.955 360.958 222.484 378.476 210.182 404.482 191.92 421.69 159.512 421.815 128.561 421.843 121.293 421.453 120.59 417.665 121.128 413.915 121.661 413.293 123.252 411.626 136.589L409.767 151.456 405.632 147.321C403.36 145.048 400.97 141.075 400.321 138.494 399.643 135.79 397.812 133.802 396.001 133.802 394.27 133.802 391.953 132.898 390.849 131.795 389.415 130.36 386.791 130.356 381.65 131.783 377.694 132.882 371.323 133.785 367.49 133.79 362.281 133.8 360.521 134.569 360.521 136.842 360.521 139.378 361.915 139.691 368.952 138.726 378.722 137.386 381.786 140.767 376.296 146.832 371.92 151.67 357.954 158.285 354.74 157.046 353.32 156.498 349.231 151.467 345.654 145.864 339.96 136.948 336.362 133.393 336.362 136.682 336.362 138.512 341.809 148.291 347.642 156.934 352.558 164.219 354.234 165.394 359.724 165.394 367.395 165.394 367.544 166.483 361.136 175.819 358.41 179.796 354.801 186.625 353.117 190.998 347.397 205.856 337.821 218.844 330.285 221.962 326.431 223.556 321.709 224.861 319.791 224.861 314.809 224.861 304.778 212.752 304.729 206.677 304.707 203.902 303.034 197.985 301.013 193.531 298.991 189.076 297.337 184.427 297.337 183.2 297.337 176.925 292.065 173.927 278.911 172.723 261.905 171.164 256.453 166.81 256.453 154.79 256.453 143.519 260.593 134.773 268.317 129.73 275.18 125.248 277.716 121.455 279.573 112.895 280.184 110.085 281.786 107.785 283.137 107.785 287.019 107.785 290.281 98.9537 287.982 94.659 286.423 91.7433 287.053 89.7753 291.227 84.544 294.075 80.9741 297.002 78.0509 297.729 78.0509 298.457 78.0509 299.953 81.3959 301.053 85.4843 302.312 90.1581 304.14 92.9177 305.978 92.9177 308.312 92.9177 308.654 91.6076 307.68 86.4135 306.342 79.2774 307.665 78.142 311.475 83.1614 315.387 88.3146 314.543 90.7007 307.093 95.5399 297.37 101.856 286.187 112.668 286.187 115.755 286.187 119.347 294.244 122.651 303.012 122.651 308.545 122.651 311.373 123.804 314.409 127.297 318.355 131.835 323.79 133.084 329.706 130.815 335.578 128.561 332.406 124.623 321.525 120.656 315.409 118.426 309.459 115.461 308.305 114.07 307.03 112.533 304.46 111.975 301.771 112.65 298.474 113.477 297.337 112.995 297.337 110.773 297.337 109.13 298.532 107.785 299.992 107.785 301.451 107.785 303.897 106.534 305.426 105.004 306.956 103.475 310.375 101.399 313.027 100.392 321.588 97.1362 324.157 84.7596 316.952 81.4758 303.254 75.2355 313.438 63.8456 330.672 66.1314 338.713 67.1981 339.841 66.8599 343.424 62.3051 346.697 58.1442 346.979 56.6965 345.111 53.66 343.197 50.5491 343.519 49.5159 347.289 46.6503L351.714 43.2904 344.751 35.5819 337.788 27.8753 322.603 27.8753C308.403 27.8753 307.4 28.1336 307.119 31.8671M136.589 325C101.537 341.147 102.94 393.189 138.752 405.276 175.826 417.786 208.927 381.6 192.561 346.451 182.635 325.136 157.341 315.441 136.589 325M254.595 325.368C244.227 330.068 238.55 335.258 233.937 344.255 225.738 360.242 227.78 378.736 239.219 392.1 251.097 405.978 266.819 410.951 283.49 406.104 306.262 399.483 319.46 377.449 314.082 355.029 307.708 328.462 279.164 314.229 254.595 325.368M368.398 323.976C352.431 329.767 340.133 347.492 340.098 364.762 340.019 403.023 386.599 422.274 413.696 395.177 435.18 373.693 428.434 337.88 400.475 325 392.061 321.126 377.54 320.661 368.398 323.976M478.526 324.29C469.025 327.652 456.213 341.123 453.615 350.48 446.291 376.858 460.625 401.721 486.22 407.034 512.402 412.469 537.33 392.172 537.33 365.419 537.33 334.307 508.061 313.835 478.526 324.29M88.677 431.268C67.7092 436.325 55.379 452.199 55.379 474.137 55.379 482.243 56.6036 487.023 60.5229 494.226 80.634 531.175 136.922 519.713 140.713 477.896 143.432 447.912 117.184 424.392 88.677 431.268M199.208 432.733C163.221 445.429 159.709 494.906 193.596 511.791 224.144 527.015 259.408 503.051 255.938 469.428 254.717 457.599 251.443 450.673 243.314 442.727 231.049 430.735 215.108 427.124 199.208 432.733M310.522 431.484C299.912 433.876 284.295 449.053 281.013 460.158 276.506 475.41 280.18 492.176 290.483 503.395 296.93 510.416 311.893 516.584 322.525 516.604 334.273 516.626 349.417 509.459 356.083 500.719 381.502 467.393 351.753 422.187 310.522 431.484M429.457 431.464C423.415 432.841 418.775 435.84 411.739 442.918 397.487 457.259 393.953 473.823 401.561 490.606 406.656 501.845 411.704 506.983 422.776 512.205 447.704 523.961 475.802 510.54 483.115 483.386 485.454 474.694 483.568 461.286 478.692 451.952 470.348 435.981 448.865 427.041 429.457 431.464M543.879 431.945C525.537 436.875 514.441 450.421 513.235 469.354 511.512 496.404 529.365 516.474 555.243 516.582 567.084 516.632 574.929 513.586 584.415 505.257 598.868 492.566 602.592 471.89 593.653 453.955 587.937 442.482 578.604 434.963 566.04 431.703 555.044 428.851 555.403 428.847 543.879 431.945" fill="#00A651" fill-rule="evenodd" transform="matrix(1.00135 0 0 1 370.347 -669)"/></g></svg>