<svg width="663" height="663" xmlns="http://www.w3.org/2000/svg" xmlns:xlink="http://www.w3.org/1999/xlink" xml:space="preserve" overflow="hidden"><g transform="translate(-2061 781)"><path d="M2374.04-656.158C2310.32-650.88 2256.01-604.488 2238.35-540.259 2234.53-526.377 2234.13-522.475 2234.18-500.263 2234.24-478.526 2234.73-473.854 2238.38-460.268 2249.86-417.553 2279.63-380.107 2317.74-360.452 2342.48-347.696 2364.07-342.455 2391.8-342.475 2425.1-342.499 2456.39-352.547 2484.39-372.207 2486.71-373.835 2488.61-372.555 2498.62-362.605 2508.73-352.564 2510.18-350.435 2510.18-345.6 2510.18-342.559 2511.29-336.327 2512.65-331.751 2514.94-324.055 2517.74-320.787 2549.95-288.246 2569.11-268.895 2587.67-251.058 2591.2-248.611 2610.14-235.472 2634.97-241.646 2644.91-261.96 2648.45-269.202 2648.93-271.758 2648.26-280.027 2647.84-285.324 2646.27-292.049 2644.78-294.972 2643.29-297.895 2625.74-316.743 2605.77-336.858 2566.27-376.652 2560.39-381.046 2546.64-381.046 2539.51-381.046 2538.47-381.608 2527.72-391.234 2521.45-396.837 2516.33-402.007 2516.33-402.722 2516.33-403.439 2519.36-408.719 2523.05-414.456 2531.24-427.163 2538.07-442.515 2542.79-458.805 2545.91-469.593 2546.32-474.303 2546.28-498.725 2546.24-520.363 2545.63-528.599 2543.5-536.413 2534.65-568.766 2521.45-591.35 2498.4-613.512 2465.47-645.187 2421.91-660.123 2374.04-656.158M2208.68-628.993C2186.02-621.471 2169.8-602.741 2165.44-579.054 2160.26-550.953 2178.27-521.216 2206.5-511.257L2212.68-509.076 2214.66-523.844C2216.77-539.573 2224.36-564.879 2230.74-577.477 2236.08-588.009 2252.14-611.757 2256.99-616.287 2259.18-618.339 2260.98-620.494 2260.98-621.077 2260.98-621.66 2256.65-624.087 2251.36-626.472 2238.82-632.128 2221.24-633.165 2208.68-628.993M2541.71-629.63C2533.66-627.076 2522.48-621.297 2522.48-619.688 2522.48-618.99 2523.94-617.101 2525.73-615.488 2531.43-610.341 2548.11-583.755 2553.69-570.94 2560.3-555.729 2564.87-539.491 2567.01-523.611 2567.9-516.992 2568.63-510.936 2568.63-510.151 2568.63-507.379 2574.5-508.785 2585.14-514.109 2603.37-523.228 2615.52-539.345 2619.46-559.599 2623.95-582.735 2612.13-608.697 2590.94-622.245 2577.4-630.897 2555.89-634.125 2541.71-629.63M2378.06-623.931C2347.37-621.065 2321.58-608.16 2299.27-584.52 2276.73-560.622 2265.58-531.772 2265.6-497.436 2265.62-472.745 2275.08-443.962 2289.25-425.426L2294.73-418.273 2308.29-424.121C2315.76-427.339 2330.83-432.29 2341.8-435.122 2360.94-440.064 2362.87-440.269 2390.19-440.247 2416.01-440.227 2420.15-439.841 2434.8-436.089 2450.63-432.036 2465.11-427.399 2479.92-421.64L2487.34-418.753 2491.86-424.128C2497.94-431.362 2509.58-455.032 2512.65-466.421 2516.46-480.573 2517.21-508.827 2514.18-523.807 2508.37-552.48 2494.49-575.965 2471.9-595.368 2454.42-610.386 2428.87-621.508 2407.58-623.369 2401.83-623.874 2395.73-624.477 2394.04-624.71 2392.35-624.944 2385.15-624.594 2378.06-623.931M2371.89-593.971C2350.79-588.296 2331.72-571.034 2324.5-551.056 2318.37-534.112 2319.34-513.388 2327.01-496.954 2332.96-484.233 2346.78-470.554 2360.43-463.88 2370.6-458.907 2371.6-458.73 2389.5-458.73 2407.77-458.73 2408.21-458.814 2419.51-464.398 2438.79-473.925 2451.88-489.668 2457.06-509.547 2470.28-560.295 2422.56-607.597 2371.89-593.971M2197.79-487.877C2179.43-484.554 2161.74-478.472 2141.76-468.622 2118.55-457.176 2110.02-450.914 2105.81-442.222 2102.77-435.939 2102.53-433.005 2102.53-401.327L2102.53-367.202 2251.51-367.202 2256.24-371.935C2258.85-374.538 2260.98-377.028 2260.98-377.467 2260.98-377.905 2258.2-381.42 2254.81-385.274 2247.35-393.748 2236.78-409.592 2231.07-420.871 2224.36-434.105 2216.81-459.136 2214.63-475.322 2213.53-483.541 2211.91-490.203 2211.04-490.126 2210.16-490.051 2204.2-489.038 2197.79-487.877M2567.36-476.534C2564.8-457.271 2558.93-438.112 2550.28-420.726 2541.75-403.578 2542.11-402.046 2555.03-400.675 2565.99-399.513 2575.5-394.049 2591.01-380.011L2605.17-367.202 2682.62-367.202 2682.16-403.084 2681.7-438.966 2677.5-445.31C2665.21-463.855 2620.38-483.207 2575.44-489.355L2569.18-490.214ZM2275.78-351.428C2269.19-342.794 2268.67-339.322 2268.67-304.032L2268.67-270.29 2516.33-270.29 2516.33-292.203 2507.13-302.045C2502.06-307.458 2496.82-314.02 2495.47-316.628 2492.13-323.072 2488.68-334.787 2488.66-339.71 2488.63-347.34 2485.57-347.61 2473.11-341.085 2431.2-319.121 2379.81-315.126 2334.49-330.309 2318.82-335.561 2308.89-340.363 2294.39-349.71 2288.65-353.408 2282.97-356.434 2281.77-356.434 2280.57-356.434 2277.87-354.182 2275.78-351.428" fill="#00A651" fill-rule="evenodd"/></g></svg>