<svg width="666" height="683" xmlns="http://www.w3.org/2000/svg" xmlns:xlink="http://www.w3.org/1999/xlink" xml:space="preserve" overflow="hidden"><g transform="translate(-1404 -587)"><path d="M355.74 79.1548C331.274 94.0706 340.43 133.479 369.053 136.462 387.929 138.428 404.884 121.473 402.918 102.597 400.644 80.7767 374.438 67.7532 355.74 79.1548M255.96 96.8278C231.054 102.51 219.286 134.41 234.869 154.004 241.888 162.828 255.18 169.914 264.714 169.914 276.149 169.914 291.431 160.768 296.726 150.758 311.904 122.054 287.411 89.6547 255.96 96.8278M452.236 122.726C441.133 130.502 439.203 145.168 447.969 155.153 458.2 166.807 472.562 165.94 482.728 153.058 488.899 145.238 487.192 132.396 479.009 125.084 472.013 118.836 459.38 117.721 452.236 122.726M191.379 196.233C185.583 200.292 181.57 209.969 182.87 216.758 183.43 219.691 186.457 224.252 189.599 226.895 199.57 235.285 213.941 232.357 219.89 220.726 228.538 203.814 206.986 185.301 191.379 196.233M494.436 202.034C483.071 216.48 498.267 234.634 514.467 225.962 519.616 223.207 522.551 216.378 521.545 209.496 519.748 197.187 502.075 192.321 494.436 202.034M554.151 253.599C533.165 259.847 520.23 267.503 504.757 282.835 489.391 298.06 481.768 309.908 475.612 328.133 471.731 339.623 471.637 341.01 474.377 346.308 479.92 357.03 477.066 369.435 461.795 400.974 454.17 416.726 447.936 431.219 447.943 433.184 447.963 438.93 459.843 449.274 469.291 451.768 487.29 456.524 487.537 456.827 487.537 474.184 487.537 489.576 490.596 498.472 497.263 502.467 498.813 503.397 499.286 506.851 498.643 512.563 496.805 528.861 511.319 549.967 530.701 559.179 546.652 566.762 565.003 563.804 588.709 549.83 603.548 541.081 637.585 506.616 653.086 484.641 667.42 464.319 688.58 424.505 694.803 406.145 706.433 371.834 704.199 341.525 687.709 309.9 678.909 293.022 659.687 273.376 642.657 263.853 616.421 249.181 582.272 245.224 554.151 253.599M207.011 290.742C133.464 306.851 79.1992 382.308 86.9921 457.636 89.257 479.532 96.8838 501.08 116.712 541.601 155.531 620.939 205.94 677.81 261.527 704.979 280.024 714.021 294.308 715.008 311.825 708.454 326.994 702.78 343.512 687.039 350.395 671.705 355.06 661.307 355.63 658.054 354.802 646.492 353.877 633.549 353.995 633.115 359.524 629.178 367.574 623.445 369.213 617.985 370.694 591.986 372.26 564.481 372.45 564.236 395.927 559.191 409.072 556.366 413.167 554.57 418.394 549.344 428.475 539.263 427.48 533.267 410.076 499.248 386.249 452.67 381.77 434.011 389.18 412.184 391.943 404.046 391.922 402.484 388.914 393.291 375.935 353.635 342.73 317.245 303.831 300.041 277.276 288.298 236.188 284.351 207.011 290.742" fill="#00A651" fill-rule="evenodd" transform="matrix(1.00076 0 0 1 1342.39 539.371)"/></g></svg>