<svg width="663" height="684" xmlns="http://www.w3.org/2000/svg" xmlns:xlink="http://www.w3.org/1999/xlink" xml:space="preserve" overflow="hidden"><g transform="translate(-2103 -607)"><path d="M324.733 77.58C317.591 83.4678 314.162 93.0696 314.162 107.18L314.162 115.263 304.683 118.345C299.47 120.041 291.418 123.52 286.792 126.076 277.179 131.39 276.585 131.242 259.996 119.425 254.534 115.536 247.26 111.842 243.829 111.215 237.779 110.114 237.006 110.69 218.036 130.421 207.28 141.608 198.039 152.491 197.5 154.606 196.304 159.3 203.64 174.322 211.503 183.277L217.183 189.747 209.701 205.491C205.587 214.15 202.219 222.15 202.219 223.27 202.219 226.177 197.612 227.569 184.186 228.721 162.12 230.615 158.025 237.122 158.258 269.927 158.513 305.774 162.754 312.06 187.957 313.947L202.898 315.065 205.047 323.19C206.227 327.658 208.92 335.242 211.027 340.041 215.986 351.334 215.902 352.215 209.281 358.511 199.294 368.007 195.981 378.497 200.865 385.161 202.822 387.829 313.25 427.818 318.855 427.887 319.945 427.899 331.898 422.629 345.416 416.176 358.934 409.721 374.134 402.808 379.194 400.815 388.335 397.211 402.633 393.425 402.633 394.607 402.633 394.947 390.047 410.003 374.663 428.064 346.941 460.614 343.085 466.828 343.061 479.007 343.04 489.398 353.14 503.176 365.399 509.479 383.307 518.687 402.281 515.177 427.008 498.084 470.867 467.762 470.118 468.147 481.184 470.223 484.653 470.873 492.974 475.576 499.678 480.673 522.628 498.12 611.17 569.245 613.428 572.049 619.495 579.573 612.069 594.019 602.137 594.019 595.12 594.019 588.904 590.204 562.635 569.778 529.818 544.257 528.596 543.724 520.814 551.508 511.541 560.779 515.601 566.539 550.235 593.226 566.591 605.831 568.742 608.131 568.742 613.031 568.742 619.672 565.923 622.907 560.136 622.907 554.48 622.907 552.049 621.499 528.718 604.715 506.099 588.442 499.68 586.725 493.041 595.165 490.983 597.782 489.298 601.326 489.298 603.043 489.298 606.829 502.26 618.968 518.694 630.572 525.366 635.283 530.825 640.235 530.825 641.577 530.825 644.314 526.521 648.484 520.46 651.619 515.478 654.195 511.687 652.397 488 636.225 478.727 629.893 469.188 624.713 466.807 624.713 458.655 624.713 452.745 635.192 456.714 642.608 457.828 644.691 464.803 650.96 472.214 656.537 486.541 667.32 488.587 671.543 481.625 675.952 474.787 680.282 466.727 681.109 459.758 678.198 453.06 675.398 452.355 673.921 450.739 659.287 449.503 648.087 441.224 635.582 432.151 631.209 425.464 627.986 424.505 626.677 422.604 618.179 418.899 601.627 405.908 588.602 393.102 588.602 387.999 588.602 386.163 586.674 382.787 577.769 378.249 565.802 366.864 556.578 353.954 554.407 348.64 553.514 347.521 552.457 346.479 547.362 344.771 539.015 336.191 528.87 326.765 524.055 311.206 516.105 293.196 520.027 282.177 533.761L276.782 540.487 258.909 534.588C236.317 527.133 206.363 512.414 200.215 505.75 190.89 495.639 182.503 459.247 181.035 422.524 180.015 396.991 179.874 396.259 174.994 391.379 169.391 385.776 164.704 385.15 157.245 389.007 148.998 393.271 147.394 399.932 148.617 424.846 152.295 499.902 186.686 572.649 244.658 627.997 276.293 658.2 311.123 679.365 352.078 693.269 361.512 696.472 372.921 701.428 377.433 704.281 392.775 713.986 399.526 715.415 419.785 713.256 429.716 712.198 442.34 711.824 447.84 712.426 458.673 713.612 497.035 710.38 501.747 707.886 503.342 707.041 507.489 705.922 510.965 705.397 534.27 701.876 570.986 688.553 598.961 673.462 662.396 639.246 720.234 568.498 743.811 496.28 756.912 456.151 762.13 412.376 758.689 371.479 754.162 317.677 739.443 273.902 712.108 232.935 683.725 190.4 642.568 151.652 601.104 128.425 574.611 113.586 530.071 98.8653 498.797 94.6133 491.999 93.6889 490.533 94.18 485.707 99.008 478.122 106.591 478.321 112.011 486.628 124.164 486.81 124.432 496.88 126.701 509.004 129.209 546.77 137.02 573.198 148.111 605.755 169.817 640.589 193.04 679.182 235.215 693.708 265.931L698.801 276.701 692.424 284.483C688.918 288.764 670.826 306.891 652.22 324.766 599.112 375.792 599.907 375.36 574.927 366.793 542.655 355.725 525.454 351.916 502.84 350.829 479.018 349.684 461.943 352.717 440.928 361.826 432.493 365.482 426.843 366.436 409.855 367.066 386.327 367.94 378.276 370.348 342.204 387.297 330.594 392.753 320.144 397.222 318.983 397.229 314.969 397.252 236.587 369.225 236.557 367.756 236.539 366.945 238.555 363.619 241.038 360.364 247.029 352.51 246.744 348.476 239.254 335.084 235.789 328.89 231.595 317.798 229.932 310.435 227.76 300.814 225.507 295.645 221.925 292.062 217.398 287.536 215.73 287.077 203.712 287.052 196.436 287.036 189.431 286.357 188.145 285.541 186.475 284.481 185.959 279.98 186.34 269.769L186.872 255.482 199.787 253.549C213.939 251.429 220.123 248.316 223.263 241.733 235.441 216.199 245.817 189.077 244.864 185.278 244.259 182.869 240.511 176.783 236.533 171.753 232.556 166.721 229.302 161.526 229.302 160.208 229.302 156.821 242.394 144.442 245.974 144.442 247.614 144.442 254.079 147.638 260.343 151.545 276.399 161.559 279.348 161.976 288.291 155.498 292.38 152.536 302.106 147.875 309.908 145.139 317.71 142.404 325.963 138.977 328.247 137.522 334.286 133.68 338.087 125.183 339.288 112.846L340.342 102.012 365.62 102.012 366.847 113.142C369.196 134.436 374.667 139.934 400.771 147.225L418.883 152.282 418.883 185.375C418.883 203.577 418.357 218.469 417.716 218.469 417.075 218.469 412.583 214.76 407.737 210.227 394.167 197.534 378.101 190.814 359.152 189.909 330.556 188.541 314.279 194.634 295.184 213.852 281.598 227.527 276.246 236.636 271.822 253.623 268.343 266.976 268.338 274.012 271.792 288.666 281.052 327.949 314.043 353.884 354.758 353.884 395.225 353.884 429.864 328.317 443.6 288.31L448.674 273.538 448.674 195.196C448.674 104.984 449.526 109.271 433.354 118.073 423.243 123.576 421.674 123.525 404.095 117.128L393.82 113.389 392.592 103.186C390.906 89.1895 387.856 82.556 380.537 76.9733 374.613 72.4541 373.248 72.2212 352.77 72.2212 331.556 72.2212 331.138 72.3006 324.733 77.58M333.284 221.206C322.713 225.234 314.597 232.182 307.232 243.508 300.797 253.404 300.621 254.137 300.621 270.829 300.621 286.267 301.115 288.821 305.557 296.379 324.937 329.348 368.176 334.893 394.627 307.801 406.343 295.8 410.713 283.269 409.433 265.355 408.071 246.33 398.581 233.018 379.161 222.891 370.615 218.433 343.202 217.427 333.284 221.206M699.586 319.77C693.659 325.835 675.365 343.507 658.933 359.044 622.519 393.477 612.271 399.836 593.116 399.89 582.335 399.919 576.762 398.56 555.2 390.642 525.228 379.636 509.358 376.516 489.992 377.825 456.513 380.089 445.711 387.257 403.926 434.941 370.361 473.245 367.743 477.734 375.099 484.364 384.449 492.79 392.119 490.205 423.902 467.912 451.245 448.732 459.621 444.297 471.064 442.941 491.116 440.567 498.088 444.799 581.138 509.778L619.715 539.961 629.888 534.256C655.683 519.788 688.34 493.225 708.168 470.579L719.814 457.281 722.367 440.338C725.92 416.756 725.534 366.587 721.639 345.759 718.133 327.014 713.122 308.745 711.487 308.745 710.869 308.745 705.512 313.707 699.586 319.77M683.329 530.473C674.426 537.232 660.376 547.101 652.106 552.405 639.289 560.626 637.242 562.61 638.235 565.847 642.041 578.239 642.357 582.171 640.147 589.52 635.487 605 625.856 613.149 602.485 621.385 597.106 623.281 594.862 625.484 592.192 631.484 590.316 635.703 589.447 639.157 590.265 639.157 591.081 639.157 597.973 635.095 605.58 630.13 613.186 625.164 620.602 621.102 622.061 621.102 623.519 621.102 624.713 620.197 624.713 619.092 624.713 617.987 630.371 611.845 637.287 605.443 657.682 586.56 687.497 548.554 698.346 527.61 705.072 514.63 703.912 514.852 683.329 530.473M216.663 547.691C216.663 549.531 242.022 580.34 252.404 591.114 263.883 603.025 293.933 627.488 295.348 626.074 295.711 625.71 295.191 622.454 294.195 618.84 292.772 613.687 291.026 611.776 286.119 610.001 282.674 608.756 279.857 606.869 279.857 605.805 279.857 604.742 276.262 601.909 271.867 599.51 262.008 594.124 259.55 589.384 258.281 573.322 257.29 560.77 257.277 560.747 251.232 559.519 245.689 558.392 240.421 556.424 224.516 549.538 218.783 547.057 216.663 546.557 216.663 547.691M297.156 556.283C288.399 564.286 287.079 566.367 287.079 572.172 287.079 580.311 289.663 583.186 296.981 583.186 304.894 583.186 321.384 566.56 321.384 558.584 321.384 552.329 316.646 547.075 311.006 547.075 308.93 547.075 302.697 551.219 297.156 556.283M331.835 590.296C322.224 600.118 319.579 603.985 319.579 608.219 319.579 614.217 326.557 621.102 332.636 621.102 334.584 621.102 341.788 615.687 348.642 609.07 363.242 594.976 364.533 590.002 355.55 582.444 352.495 579.873 348.667 577.769 347.042 577.769 345.418 577.769 338.576 583.406 331.835 590.296M370.843 626.824C356.81 640.432 354.801 645.188 360.797 650.613 367.066 656.286 372.222 654.324 385.078 641.369 397.877 628.47 400.139 622.478 394.38 616.716 389.221 611.56 384.491 613.591 370.843 626.824M322.287 648.815C324.273 650.391 327.481 651.707 329.419 651.738 334.389 651.819 330.767 648.73 324.092 647.195 318.896 646.002 318.822 646.067 322.287 648.815M556.103 648.521C556.103 649.698 554.276 652.612 552.04 654.997L547.978 659.336 556.103 656.174C566.304 652.206 566.087 652.417 563.361 649.131 560.651 645.867 556.103 645.482 556.103 648.521M404.361 661.974C394.414 671.278 392.975 676.969 399.424 681.484 405.323 685.617 410.216 684.949 418.612 678.868 425.227 674.074 426.105 672.601 426.105 666.274 426.105 660.168 425.319 658.704 420.778 656.357 417.848 654.842 414.97 653.601 414.382 653.601 413.793 653.601 409.284 657.37 404.361 661.974" fill="#00A651" fill-rule="evenodd" transform="matrix(1 0 0 1.00114 1985.73 548.34)"/></g></svg>